# xmcd
#
# Track frame offsets: 
#        150
#        13503
#        33081
#        44873
#        56616
#        70002
#        84514
#        96719
#        111056
#        124867
#
# Disc length: 1824 seconds
#
# Revision: 0
# Processed by: cddbd v1.5.2PL0 Copyright (c) Steve Scherf et al.
# Submitted via: ExactAudioCopy v1.0b1
#
DISCID=85071e0a
DTITLE=Loudon Wainwright III  - 10 Songs for the New Depression 
DYEAR=1900
DGENRE=
TTITLE0=Times Is Hard
TTITLE1=House
TTITLE2=On to Victory, Mr Roosevelt
TTITLE3=Fear Itself
TTITLE4=The Panic Is on
TTITLE5=The Krugman Blues
TTITLE6=Halloween 2009
TTITLE7=Middle of the Night
TTITLE8=Cash for Clunkers
TTITLE9=Got a Ukulele
EXTD=
EXTT0=
EXTT1=
EXTT2=
EXTT3=
EXTT4=
EXTT5=
EXTT6=
EXTT7=
EXTT8=
EXTT9=
PLAYORDER=
